<?xml version="1.0" standalone="no"?>
<!DOCTYPE svg PUBLIC "-//W3C//DTD SVG 20010904//EN"
 "http://www.w3.org/TR/2001/REC-SVG-20010904/DTD/svg10.dtd">
<svg version="1.0" xmlns="http://www.w3.org/2000/svg"
 width="192.000000pt" height="192.000000pt" viewBox="0 0 192.000000 192.000000"
 preserveAspectRatio="xMidYMid meet">
<metadata>
Created by potrace 1.11, written by Peter Selinger 2001-2013
</metadata>
<g transform="translate(0.000000,192.000000) scale(0.100000,-0.100000)"
fill="#000000" stroke="none">
<path d="M664 1865 c-33 -13 -91 -79 -118 -132 -19 -39 -21 -102 -3 -127 13
-17 15 -16 30 17 9 19 17 42 17 51 0 24 37 56 65 56 15 0 40 7 57 16 31 16 32
16 50 -6 14 -17 17 -32 12 -59 -10 -59 -36 -92 -120 -155 -76 -58 -139 -130
-152 -174 -19 -64 -17 -136 5 -174 38 -65 204 -155 301 -163 27 -3 54 -13 73
-29 17 -14 34 -26 39 -26 6 0 15 -44 26 -130 1 -8 5 -40 9 -70 14 -100 12
-114 -15 -127 -38 -18 -71 -57 -76 -89 -8 -55 -11 -175 -4 -167 4 4 17 38 30
75 12 37 26 70 31 74 5 3 7 13 4 23 -3 11 4 26 18 39 l23 22 4 -68 c10 -164 1
-434 -15 -450 -2 -3 -19 -6 -37 -8 -34 -3 -41 -5 -93 -19 -22 -6 -25 -10 -12
-14 28 -10 167 -5 178 6 6 6 12 61 14 125 4 126 13 249 24 319 4 25 6 55 4 65
-17 83 -19 78 44 106 32 14 87 36 123 48 36 13 74 31 84 41 19 18 19 19 -20
56 -22 21 -68 61 -103 88 l-63 50 35 15 c19 8 51 28 71 44 33 25 43 27 88 22
29 -4 58 -12 66 -19 8 -6 28 -12 44 -12 29 0 30 1 23 39 -20 127 -189 300
-335 343 -77 23 -172 20 -243 -7 -59 -22 -92 -52 -159 -140 -39 -52 -64 -60
-96 -30 -26 25 -30 86 -8 128 8 15 59 72 115 127 114 113 131 144 126 233 -6
124 -80 201 -161 167z m469 -1005 c49 -34 85 -66 80 -70 -4 -4 -39 -25 -78
-45 -38 -21 -79 -44 -90 -52 -43 -29 -47 -19 -47 112 0 89 15 143 35 128 6 -5
52 -38 100 -73z"/>
</g>
</svg>
